FiraSans-Condensed.ufo
<glyph name="exclam" format="2">
  <advance width="219"/>
  <unicode hex="0021"/>
  <outline>
    <contour>
      <point x="156" y="689" type="line"/>
      <point x="61" y="689" type="line"/>
      <point x="73" y="229" type="line"/>
      <point x="145" y="229" type="line"/>
    </contour>
    <contour>
      <point x="109" y="120" type="curve" smooth="yes"/>
      <point x="70" y="120"/>
      <point x="45" y="89"/>
      <point x="45" y="54" type="curve" smooth="yes"/>
      <point x="45" y="19"/>
      <point x="70" y="-12"/>
      <point x="109" y="-12" type="curve" smooth="yes"/>
      <point x="149" y="-12"/>
      <point x="174" y="19"/>
      <point x="174" y="54" type="curve" smooth="yes"/>
      <point x="174" y="89"/>
      <point x="149" y="120"/>
    </contour>
  </outline>
</glyph>
<glyph name="quotesingle" format="2">
  <advance width="192"/>
  <unicode hex="0027"/>
  <outline>
    <contour>
      <point x="65" y="428" type="line"/>
      <point x="127" y="428" type="line"/>
      <point x="139" y="689" type="line" smooth="yes"/>
      <point x="53" y="689" type="line"/>
    </contour>
  </outline>
</glyph>
<glyph name="parenright" format="2">
  <advance width="266"/>
  <unicode hex="0029"/>
  <outline>
    <contour>
      <point x="84" y="844" type="curve"/>
      <point x="28" y="807" type="line"/>
      <point x="102" y="673"/>
      <point x="149" y="575"/>
      <point x="149" y="350" type="curve" smooth="yes"/>
      <point x="149" y="126"/>
      <point x="102" y="27"/>
      <point x="28" y="-107" type="curve"/>
      <point x="84" y="-144" type="line"/>
      <point x="165" y="-13"/>
      <point x="238" y="116"/>
      <point x="238" y="350" type="curve" smooth="yes"/>
      <point x="238" y="584"/>
      <point x="165" y="713"/>
    </contour>
  </outline>
</glyph>
<glyph name="hyphen" format="2">
  <advance width="339"/>
  <unicode hex="002D"/>
  <outline>
    <contour>
      <point x="50" y="276" type="line"/>
      <point x="289" y="276" type="line"/>
      <point x="289" y="350" type="line"/>
      <point x="50" y="350" type="line"/>
    </contour>
  </outline>
</glyph>
<glyph name="slash" format="2">
  <advance width="427"/>
  <unicode hex="002F"/>
  <outline>
    <contour>
      <point x="275" y="806" type="line"/>
      <point x="80" y="-89" type="line"/>
      <point x="152" y="-103" type="line"/>
      <point x="347" y="792" type="line"/>
    </contour>
  </outline>
</glyph>
<glyph name="seven" format="2">
  <advance width="369"/>
  <unicode hex="0037"/>
  <outline>
    <contour>
      <point x="347" y="669" type="line"/>
      <point x="18" y="669" type="line"/>
      <point x="18" y="597" type="line"/>
      <point x="260" y="597" type="line"/>
      <point x="63" y="15" type="line"/>
      <point x="141" y="-10" type="line"/>
      <point x="347" y="602" type="line"/>
    </contour>
  </outline>
</glyph>
<glyph name="less" format="2">
  <advance width="415"/>
  <unicode hex="003C"/>
  <outline>
    <contour>
      <point x="344" y="543" type="line"/>
      <point x="37" y="377" type="line"/>
      <point x="37" y="289" type="line"/>
      <point x="344" y="122" type="line"/>
      <point x="378" y="188" type="line"/>
      <point x="107" y="333" type="line"/>
      <point x="378" y="476" type="line"/>
    </contour>
  </outline>
</glyph>
<glyph name="greater" format="2">
  <advance width="415"/>
  <unicode hex="003E"/>
  <outline>
    <contour>
      <point x="71" y="543" type="line"/>
      <point x="37" y="476" type="line"/>
      <point x="308" y="333" type="line"/>
      <point x="37" y="188" type="line"/>
      <point x="71" y="122" type="line"/>
      <point x="378" y="289" type="line"/>
      <point x="378" y="377" type="line"/>
    </contour>
  </outline>
</glyph>
<glyph name="D" format="2">
  <advance width="534"/>
  <unicode hex="0044"/>
  <anchor x="249" y="0" name="bottom"/>
  <anchor x="267" y="345" name="center"/>
  <anchor x="248" y="689" name="top"/>
  <outline>
    <contour>
      <point x="205" y="689" type="curve" smooth="yes"/>
      <point x="76" y="689" type="line"/>
      <point x="76" y="0" type="line"/>
      <point x="220" y="0" type="line" smooth="yes"/>
      <point x="350" y="0"/>
      <point x="489" y="62"/>
      <point x="489" y="348" type="curve" smooth="yes"/>
      <point x="489" y="639"/>
      <point x="352" y="689"/>
    </contour>
    <contour>
      <point x="222" y="616" type="line" smooth="yes"/>
      <point x="310" y="616"/>
      <point x="394" y="588"/>
      <point x="394" y="348" type="curve" smooth="yes"/>
      <point x="394" y="114"/>
      <point x="314" y="72"/>
      <point x="226" y="72" type="curve" smooth="yes"/>
      <point x="167" y="72" type="line"/>
      <point x="167" y="616" type="line"/>
    </contour>
  </outline>
</glyph>
<glyph name="G" format="2">
  <advance width="528"/>
  <unicode hex="0047"/>
  <anchor x="286" y="0" name="bottom"/>
  <anchor x="294" y="689" name="top"/>
  <outline>
    <contour>
      <point x="299" y="700" type="curve" smooth="yes"/>
      <point x="162" y="700"/>
      <point x="45" y="579"/>
      <point x="45" y="345" type="curve" smooth="yes"/>
      <point x="45" y="106"/>
      <point x="134" y="-12"/>
      <point x="288" y="-12" type="curve" smooth="yes"/>
      <point x="360" y="-12"/>
      <point x="424" y="13"/>
      <point x="476" y="49" type="curve"/>
      <point x="476" y="381" type="line"/>
      <point x="284" y="381" type="line"/>
      <point x="294" y="307" type="line"/>
      <point x="388" y="307" type="line"/>
      <point x="388" y="93" type="line"/>
      <point x="358" y="73"/>
      <point x="325" y="63"/>
      <point x="289" y="63" type="curve" smooth="yes"/>
      <point x="193" y="63"/>
      <point x="141" y="137"/>
      <point x="141" y="345" type="curve" smooth="yes"/>
      <point x="141" y="557"/>
      <point x="217" y="626"/>
      <point x="299" y="626" type="curve" smooth="yes"/>
      <point x="348" y="626"/>
      <point x="380" y="609"/>
      <point x="421" y="574" type="curve"/>
      <point x="471" y="625" type="line"/>
      <point x="421" y="674"/>
      <point x="372" y="700"/>
    </contour>
  </outline>
</glyph>
<glyph name="H" format="2">
  <advance width="556"/>
  <unicode hex="0048"/>
  <anchor x="278" y="0" name="bottom"/>
  <anchor x="488" y="0" name="bottomright"/>
  <anchor x="278" y="345" name="center"/>
  <anchor x="278" y="689" name="top"/>
  <anchor x="68" y="689" name="topleft"/>
  <outline>
    <contour>
      <point x="389" y="0" type="line"/>
      <point x="480" y="0" type="line"/>
      <point x="480" y="689" type="line"/>
      <point x="389" y="689" type="line"/>
      <point x="389" y="399" type="line"/>
      <point x="167" y="399" type="line"/>
      <point x="167" y="689" type="line"/>
      <point x="76" y="689" type="line"/>
      <point x="76" y="0" type="line"/>
      <point x="167" y="0" type="line"/>
      <point x="167" y="324" type="line"/>
      <point x="389" y="324" type="line"/>
    </contour>
  </outline>
</glyph>
<glyph name="J" format="2">
  <advance width="252"/>
  <unicode hex="004A"/>
  <anchor x="125" y="-201" name="bottom"/>
  <anchor x="134" y="689" name="top"/>
  <outline>
    <contour>
      <point x="180" y="689" type="line"/>
      <point x="89" y="689" type="line"/>
      <point x="89" y="99" type="line" smooth="yes"/>
      <point x="89" y="2"/>
      <point x="74" y="-32"/>
      <point x="0" y="-71" type="curve"/>
      <point x="24" y="-135" type="line"/>
      <point x="117" y="-99"/>
      <point x="180" y="-46"/>
      <point x="180" y="95" type="curve" smooth="yes"/>
    </contour>
  </outline>
</glyph>
<glyph name="L" format="2">
  <advance width="406"/>
  <unicode hex="004C"/>
  <anchor x="232" y="0" name="bottom"/>
  <anchor x="321" y="388" name="center"/>
  <anchor x="122" y="689" name="top"/>
  <anchor x="183" y="689" name="topright"/>
  <outline>
    <contour>
      <point x="167" y="689" type="line"/>
      <point x="76" y="689" type="line"/>
      <point x="76" y="0" type="line"/>
      <point x="386" y="0" type="line"/>
      <point x="396" y="80" type="line"/>
      <point x="167" y="80" type="line"/>
    </contour>
  </outline>
</glyph>
<glyph name="N" format="2">
  <advance width="557"/>
  <unicode hex="004E"/>
  <anchor x="280" y="0" name="bottom"/>
  <anchor x="286" y="689" name="top"/>
  <outline>
    <contour>
      <point x="481" y="689" type="line"/>
      <point x="396" y="689" type="line"/>
      <point x="396" y="308" type="line" smooth="yes"/>
      <point x="396" y="223"/>
      <point x="405" y="118"/>
      <point x="409" y="101" type="curve"/>
      <point x="197" y="689" type="line"/>
      <point x="76" y="689" type="line"/>
      <point x="76" y="0" type="line"/>
      <point x="161" y="0" type="line"/>
      <point x="161" y="324" type="line" smooth="yes"/>
      <point x="161" y="451"/>
      <point x="153" y="531"/>
      <point x="148" y="587" type="curve"/>
      <point x="360" y="0" type="line"/>
      <point x="481" y="0" type="line"/>
    </contour>
  </outline>
</glyph>
<glyph name="P" format="2">
  <advance width="476"/>
  <unicode hex="0050"/>
  <anchor x="122" y="0" name="bottom"/>
  <anchor x="242" y="689" name="top"/>
  <anchor x="67" y="689" name="topleft"/>
  <outline>
    <contour>
      <point x="167" y="0" type="line"/>
      <point x="167" y="617" type="line"/>
      <point x="212" y="617" type="line" smooth="yes"/>
      <point x="312" y="617"/>
      <point x="361" y="576"/>
      <point x="361" y="475" type="curve" smooth="yes"/>
      <point x="361" y="360"/>
      <point x="310" y="327"/>
      <point x="212" y="327" type="curve" smooth="yes"/>
      <point x="155" y="327" type="line"/>
      <point x="155" y="255" type="line"/>
      <point x="212" y="255" type="line" smooth="yes"/>
      <point x="363" y="255"/>
      <point x="456" y="322"/>
      <point x="456" y="476" type="curve" smooth="yes"/>
      <point x="456" y="616"/>
      <point x="372" y="689"/>
      <point x="210" y="689" type="curve" smooth="yes"/>
      <point x="76" y="689" type="line"/>
      <point x="76" y="0" type="line"/>
    </contour>
  </outline>
</glyph>
<glyph name="Q" format="2">
  <advance width="575"/>
  <unicode hex="0051"/>
  <anchor x="286" y="0" name="bottom"/>
  <anchor x="286" y="689" name="top"/>
  <outline>
    <contour>
      <point x="288" y="700" type="curve" smooth="yes"/>
      <point x="142" y="700"/>
      <point x="45" y="585"/>
      <point x="45" y="343" type="curve" smooth="yes"/>
      <point x="45" y="102"/>
      <point x="145" y="-9"/>
      <point x="284" y="-9" type="curve" smooth="yes"/>
      <point x="302" y="-9"/>
      <point x="318" y="-7"/>
      <point x="334" y="-4" type="curve"/>
      <point x="395" y="39" type="line"/>
      <point x="475" y="87"/>
      <point x="530" y="165"/>
      <point x="530" y="344" type="curve" smooth="yes"/>
      <point x="530" y="588"/>
      <point x="434" y="700"/>
    </contour>
    <contour>
      <point x="395" y="39" type="curve"/>
      <point x="284" y="-9" type="line"/>
      <point x="387" y="-9"/>
      <point x="439" y="-32"/>
      <point x="499" y="-102" type="curve"/>
      <point x="560" y="-31" type="line"/>
      <point x="516" y="9"/>
      <point x="464" y="37"/>
    </contour>
    <contour>
      <point x="288" y="626" type="curve" smooth="yes"/>
      <point x="380" y="626"/>
      <point x="434" y="553"/>
      <point x="434" y="344" type="curve" smooth="yes"/>
      <point x="434" y="133"/>
      <point x="379" y="63"/>
      <point x="288" y="63" type="curve" smooth="yes"/>
      <point x="199" y="63"/>
      <point x="141" y="133"/>
      <point x="141" y="343" type="curve" smooth="yes"/>
      <point x="141" y="553"/>
      <point x="197" y="626"/>
    </contour>
  </outline>
</glyph>
<glyph name="R" format="2">
  <advance width="502"/>
  <unicode hex="0052"/>
  <anchor x="255" y="0" name="bottom"/>
  <anchor x="248" y="689" name="top"/>
  <outline>
    <contour>
      <point x="214" y="689" type="curve" smooth="yes"/>
      <point x="76" y="689" type="line"/>
      <point x="76" y="0" type="line"/>
      <point x="167" y="0" type="line"/>
      <point x="167" y="617" type="line"/>
      <point x="213" y="617" type="line" smooth="yes"/>
      <point x="319" y="617"/>
      <point x="357" y="577"/>
      <point x="357" y="495" type="curve" smooth="yes"/>
      <point x="357" y="405"/>
      <point x="315" y="364"/>
      <point x="221" y="364" type="curve" smooth="yes"/>
      <point x="155" y="364" type="line"/>
      <point x="155" y="294" type="line"/>
      <point x="256" y="294" type="line"/>
      <point x="391" y="316"/>
      <point x="453" y="377"/>
      <point x="453" y="495" type="curve" smooth="yes"/>
      <point x="453" y="617"/>
      <point x="379" y="689"/>
    </contour>
    <contour>
      <point x="330" y="318" type="line"/>
      <point x="244" y="307" type="line"/>
      <point x="384" y="0" type="line"/>
      <point x="484" y="0" type="line"/>
    </contour>
  </outline>
</glyph>
<glyph name="T" format="2">
  <advance width="428"/>
  <unicode hex="0054"/>
  <anchor x="214" y="0" name="bottom"/>
  <anchor x="268" y="0" name="bottomright"/>
  <anchor x="214" y="345" name="center"/>
  <anchor x="214" y="689" name="top"/>
  <outline>
    <contour>
      <point x="422" y="689" type="line"/>
      <point x="11" y="689" type="line"/>
      <point x="11" y="613" type="line"/>
      <point x="168" y="613" type="line"/>
      <point x="168" y="0" type="line"/>
      <point x="259" y="0" type="line"/>
      <point x="259" y="613" type="line"/>
      <point x="412" y="613" type="line"/>
    </contour>
  </outline>
</glyph>
<glyph name="V" format="2">
  <advance width="472"/>
  <unicode hex="0056"/>
  <anchor x="236" y="0" name="bottom"/>
  <anchor x="236" y="689" name="top"/>
  <outline>
    <contour>
      <point x="464" y="689" type="line"/>
      <point x="375" y="689" type="line"/>
      <point x="239" y="98" type="line"/>
      <point x="100" y="689" type="line"/>
      <point x="8" y="689" type="line"/>
      <point x="185" y="0" type="line"/>
      <point x="290" y="0" type="line"/>
    </contour>
  </outline>
</glyph>
<glyph name="Y" format="2">
  <advance width="459"/>
  <unicode hex="0059"/>
  <anchor x="230" y="0" name="bottom"/>
  <anchor x="229" y="689" name="top"/>
  <anchor x="2" y="689" name="topleft"/>
  <outline>
    <contour>
      <point x="457" y="689" type="line"/>
      <point x="364" y="689" type="line"/>
      <point x="232" y="345" type="line"/>
      <point x="99" y="689" type="line"/>
      <point x="2" y="689" type="line"/>
      <point x="184" y="264" type="line"/>
      <point x="184" y="0" type="line"/>
      <point x="275" y="0" type="line"/>
      <point x="275" y="265" type="line"/>
    </contour>
  </outline>
</glyph>
<glyph name="Z" format="2">
  <advance width="427"/>
  <unicode hex="005A"/>
  <anchor x="213" y="0" name="bottom"/>
  <anchor x="223" y="689" name="top"/>
  <outline>
    <contour>
      <point x="399" y="689" type="line"/>
      <point x="50" y="689" type="line"/>
      <point x="50" y="612" type="line"/>
      <point x="304" y="612" type="line"/>
      <point x="22" y="73" type="line"/>
      <point x="22" y="0" type="line"/>
      <point x="389" y="0" type="line"/>
      <point x="399" y="78" type="line"/>
      <point x="117" y="78" type="line"/>
      <point x="399" y="615" type="line"/>
    </contour>
  </outline>
</glyph>
<glyph name="bracketleft" format="2">
  <advance width="264"/>
  <unicode hex="005B"/>
  <outline>
    <contour>
      <point x="227" y="815" type="line"/>
      <point x="48" y="815" type="line"/>
      <point x="48" y="-116" type="line"/>
      <point x="227" y="-116" type="line"/>
      <point x="227" y="-44" type="line"/>
      <point x="131" y="-44" type="line"/>
      <point x="131" y="742" type="line"/>
      <point x="227" y="742" type="line"/>
    </contour>
  </outline>
</glyph>
<glyph name="backslash" format="2">
  <advance width="427"/>
  <unicode hex="005C"/>
  <outline>
    <contour>
      <point x="152" y="803" type="line"/>
      <point x="80" y="789" type="line"/>
      <point x="275" y="-103" type="line"/>
      <point x="347" y="-89" type="line"/>
    </contour>
  </outline>
</glyph>
<glyph name="bracketright" format="2">
  <advance width="264"/>
  <unicode hex="005D"/>
  <outline>
    <contour>
      <point x="216" y="815" type="line"/>
      <point x="37" y="815" type="line"/>
      <point x="37" y="742" type="line"/>
      <point x="133" y="742" type="line"/>
      <point x="133" y="-44" type="line"/>
      <point x="37" y="-44" type="line"/>
      <point x="37" y="-116" type="line"/>
      <point x="216" y="-116" type="line"/>
    </contour>
  </outline>
</glyph>
<glyph name="asciicircum" format="2">
  <advance width="446"/>
  <unicode hex="005E"/>
  <outline>
    <contour>
      <point x="262" y="839" type="line"/>
      <point x="183" y="839" type="line"/>
      <point x="29" y="527" type="line"/>
      <point x="119" y="527" type="line"/>
      <point x="221" y="762" type="line"/>
      <point x="325" y="527" type="line"/>
      <point x="417" y="527" type="line"/>
    </contour>
  </outline>
</glyph>
<glyph name="underscore" format="2">
  <advance width="430"/>
  <unicode hex="005F"/>
  <outline>
    <contour>
      <point x="15" y="-140" type="line"/>
      <point x="415" y="-140" type="line"/>
      <point x="415" y="-64" type="line"/>
      <point x="15" y="-64" type="line"/>
    </contour>
  </outline>
</glyph>
<glyph name="k" format="2">
  <advance width="428"/>
  <unicode hex="006B"/>
  <anchor x="217" y="0" name="bottom"/>
  <anchor x="235" y="739" name="top"/>
  <outline>
    <contour>
      <point x="415" y="527" type="line"/>
      <point x="325" y="527" type="line"/>
      <point x="166" y="288" type="line"/>
      <point x="333" y="0" type="line"/>
      <point x="431" y="0" type="line"/>
      <point x="257" y="293" type="line"/>
    </contour>
    <contour>
      <point x="161" y="749" type="line"/>
      <point x="73" y="739" type="line"/>
      <point x="73" y="0" type="line"/>
      <point x="161" y="0" type="line"/>
    </contour>
  </outline>
</glyph>
<glyph name="l" format="2">
  <advance width="244"/>
  <unicode hex="006C"/>
  <anchor x="148" y="0" name="bottom"/>
  <anchor x="257" y="380" name="center"/>
  <anchor x="112" y="739" name="top"/>
  <anchor x="166" y="739" name="topright"/>
  <outline>
    <contour>
      <point x="165" y="-12" type="curve"/>
      <point x="190" y="-12"/>
      <point x="213" y="-4"/>
      <point x="229" y="6" type="curve"/>
      <point x="209" y="66" type="line"/>
      <point x="204" y="64"/>
      <point x="194" y="61"/>
      <point x="184" y="61" type="curve" smooth="yes"/>
      <point x="164" y="61"/>
      <point x="156" y="75"/>
      <point x="156" y="94" type="curve" smooth="yes"/>
      <point x="156" y="749" type="line"/>
      <point x="68" y="739" type="line"/>
      <point x="68" y="92" type="line" smooth="yes"/>
      <point x="68" y="28"/>
      <point x="107" y="-12"/>
    </contour>
  </outline>
</glyph>
<glyph name="o" format="2">
  <advance width="485"/>
  <unicode hex="006F"/>
  <anchor x="242" y="0" name="bottom"/>
  <anchor x="319" y="0" name="ogonek"/>
  <anchor x="242" y="527" name="top"/>
  <anchor x="398" y="527" name="topright"/>
  <outline>
    <contour>
      <point x="243" y="538" type="curve" smooth="yes"/>
      <point x="118" y="538"/>
      <point x="45" y="441"/>
      <point x="45" y="263" type="curve" smooth="yes"/>
      <point x="45" y="91"/>
      <point x="118" y="-12"/>
      <point x="242" y="-12" type="curve" smooth="yes"/>
      <point x="366" y="-12"/>
      <point x="440" y="95"/>
      <point x="440" y="264" type="curve" smooth="yes"/>
      <point x="440" y="446"/>
      <point x="367" y="538"/>
    </contour>
    <contour>
      <point x="243" y="467" type="curve" smooth="yes"/>
      <point x="310" y="467"/>
      <point x="347" y="412"/>
      <point x="347" y="264" type="curve" smooth="yes"/>
      <point x="347" y="115"/>
      <point x="310" y="59"/>
      <point x="242" y="59" type="curve" smooth="yes"/>
      <point x="175" y="59"/>
      <point x="138" y="115"/>
      <point x="138" y="263" type="curve" smooth="yes"/>
      <point x="138" y="412"/>
      <point x="175" y="467"/>
    </contour>
  </outline>
</glyph>
<glyph name="w" format="2">
  <advance width="607"/>
  <unicode hex="0077"/>
  <anchor x="304" y="0" name="bottom"/>
  <anchor x="306" y="527" name="top"/>
  <outline>
    <contour>
      <point x="587" y="527" type="line"/>
      <point x="505" y="527" type="line"/>
      <point x="431" y="65" type="line"/>
      <point x="357" y="527" type="line"/>
      <point x="254" y="527" type="line"/>
      <point x="178" y="65" type="line"/>
      <point x="106" y="527" type="line"/>
      <point x="20" y="527" type="line"/>
      <point x="118" y="0" type="line"/>
      <point x="233" y="0" type="line"/>
      <point x="303" y="445" type="line"/>
      <point x="374" y="0" type="line"/>
      <point x="491" y="0" type="line"/>
    </contour>
  </outline>
</glyph>
<glyph name="asciitilde" format="2">
  <advance width="405"/>
  <unicode hex="007E"/>
  <outline>
    <contour>
      <point x="269" y="254" type="curve" smooth="yes"/>
      <point x="324" y="254"/>
      <point x="359" y="300"/>
      <point x="379" y="341" type="curve"/>
      <point x="330" y="368" type="line"/>
      <point x="315" y="343"/>
      <point x="298" y="322"/>
      <point x="272" y="322" type="curve" smooth="yes"/>
      <point x="232" y="322"/>
      <point x="199" y="380"/>
      <point x="139" y="380" type="curve" smooth="yes"/>
      <point x="81" y="380"/>
      <point x="46" y="329"/>
      <point x="26" y="288" type="curve"/>
      <point x="75" y="261" type="line"/>
      <point x="90" y="286"/>
      <point x="107" y="313"/>
      <point x="133" y="313" type="curve" smooth="yes"/>
      <point x="173" y="313"/>
      <point x="206" y="254"/>
    </contour>
  </outline>
</glyph>
<glyph name="exclamdown" format="2">
  <advance width="219"/>
  <unicode hex="00A1"/>
  <outline>
    <contour>
      <point x="146" y="252" type="line"/>
      <point x="74" y="252" type="line"/>
      <point x="63" y="-202" type="line"/>
      <point x="158" y="-202" type="line"/>
    </contour>
    <contour>
      <point x="110" y="493" type="curve" smooth="yes"/>
      <point x="70" y="493"/>
      <point x="45" y="462"/>
      <point x="45" y="427" type="curve" smooth="yes"/>
      <point x="45" y="392"/>
      <point x="70" y="361"/>
      <point x="110" y="361" type="curve" smooth="yes"/>
      <point x="149" y="361"/>
      <point x="174" y="392"/>
      <point x="174" y="427" type="curve" smooth="yes"/>
      <point x="174" y="462"/>
      <point x="149" y="493"/>
    </contour>
  </outline>
</glyph>
<glyph name="cent" format="2">
  <advance width="391"/>
  <unicode hex="00A2"/>
  <anchor x="235" y="0" name="bottom"/>
  <anchor x="241" y="527" name="top"/>
  <outline>
    <contour>
      <point x="272" y="684" type="line"/>
      <point x="202" y="684" type="line"/>
      <point x="202" y="533" type="line"/>
      <point x="272" y="534" type="line"/>
    </contour>
    <contour>
      <point x="201" y="-6" type="line"/>
      <point x="201" y="-154" type="line"/>
      <point x="272" y="-154" type="line"/>
      <point x="272" y="-7" type="line"/>
    </contour>
    <component base="c"/>
  </outline>
</glyph>
<glyph name="yen" format="2">
  <advance width="445"/>
  <unicode hex="00A5"/>
  <outline>
    <contour>
      <point x="443" y="669" type="line"/>
      <point x="355" y="669" type="line"/>
      <point x="224" y="371" type="line"/>
      <point x="94" y="669" type="line"/>
      <point x="2" y="669" type="line"/>
      <point x="178" y="303" type="line"/>
      <point x="178" y="0" type="line"/>
      <point x="267" y="0" type="line"/>
      <point x="267" y="304" type="line"/>
    </contour>
    <contour>
      <point x="379" y="194" type="line"/>
      <point x="66" y="194" type="line"/>
      <point x="66" y="135" type="line"/>
      <point x="379" y="135" type="line"/>
    </contour>
    <contour>
      <point x="379" y="345" type="line"/>
      <point x="66" y="345" type="line"/>
      <point x="66" y="285" type="line"/>
      <point x="379" y="285" type="line"/>
    </contour>
  </outline>
</glyph>
<glyph name="brokenbar" format="2">
  <advance width="325"/>
  <unicode hex="00A6"/>
  <outline>
    <contour>
      <point x="203" y="807" type="line"/>
      <point x="122" y="807" type="line"/>
      <point x="122" y="443" type="line"/>
      <point x="203" y="443" type="line"/>
    </contour>
    <contour>
      <point x="203" y="262" type="line"/>
      <point x="122" y="262" type="line"/>
      <point x="122" y="-102" type="line"/>
      <point x="203" y="-102" type="line"/>
    </contour>
  </outline>
</glyph>
<glyph name="logicalnot" format="2">
  <advance width="417"/>
  <unicode hex="00AC"/>
  <outline>
    <contour>
      <point x="369" y="358" type="line"/>
      <point x="48" y="358" type="line"/>
      <point x="48" y="287" type="line"/>
      <point x="292" y="287" type="line"/>
      <point x="292" y="144" type="line"/>
      <point x="369" y="144" type="line"/>
    </contour>
  </outline>
</glyph>
<glyph name="paragraph" format="2">
  <advance width="613"/>
  <unicode hex="00B6"/>
  <outline>
    <contour>
      <point x="503" y="689" type="line"/>
      <point x="275" y="689" type="line"/>
      <point x="256" y="643" type="line"/>
      <point x="256" y="-214" type="line"/>
      <point x="334" y="-201" type="line"/>
      <point x="334" y="619" type="line"/>
      <point x="425" y="619" type="line"/>
      <point x="425" y="-214" type="line"/>
      <point x="503" y="-201" type="line"/>
    </contour>
    <contour>
      <point x="275" y="689" type="line"/>
      <point x="146" y="689"/>
      <point x="69" y="616"/>
      <point x="69" y="487" type="curve" smooth="yes"/>
      <point x="69" y="371"/>
      <point x="131" y="283"/>
      <point x="273" y="283" type="curve"/>
    </contour>
  </outline>
</glyph>
<glyph name="ordmasculine" format="2">
  <advance width="415"/>
  <unicode hex="00BA"/>
  <outline>
    <contour>
      <point x="208" y="689" type="curve" smooth="yes"/>
      <point x="106" y="689"/>
      <point x="45" y="613"/>
      <point x="45" y="480" type="curve" smooth="yes"/>
      <point x="45" y="343"/>
      <point x="106" y="271"/>
      <point x="208" y="271" type="curve" smooth="yes"/>
      <point x="310" y="271"/>
      <point x="370" y="348"/>
      <point x="370" y="480" type="curve" smooth="yes"/>
      <point x="370" y="617"/>
      <point x="310" y="689"/>
    </contour>
    <contour>
      <point x="208" y="623" type="curve" smooth="yes"/>
      <point x="260" y="623"/>
      <point x="285" y="589"/>
      <point x="285" y="480" type="curve" smooth="yes"/>
      <point x="285" y="372"/>
      <point x="259" y="337"/>
      <point x="208" y="337" type="curve" smooth="yes"/>
      <point x="156" y="337"/>
      <point x="130" y="372"/>
      <point x="130" y="480" type="curve" smooth="yes"/>
      <point x="130" y="588"/>
      <point x="156" y="623"/>
    </contour>
    <component base="minus" xOffset="1" yOffset="-297"/>
  </outline>
</glyph>
<glyph name="Eth" format="2">
  <advance width="549"/>
  <unicode hex="00D0"/>
  <anchor x="264" y="0" name="bottom"/>
  <anchor x="282" y="345" name="center"/>
  <anchor x="263" y="689" name="top"/>
  <outline>
    <contour>
      <point x="295" y="387" type="line"/>
      <point x="89" y="387" type="line"/>
      <point x="20" y="387" type="line"/>
      <point x="20" y="319" type="line"/>
      <point x="295" y="319" type="line"/>
    </contour>
    <component base="D" xOffset="15"/>
  </outline>
</glyph>
<glyph name="thorn" format="2">
  <advance width="488"/>
  <unicode hex="00FE"/>
  <anchor x="245" y="-201" name="bottom"/>
  <anchor x="245" y="739" name="top"/>
  <outline>
    <contour>
      <point x="286" y="538" type="curve" smooth="yes"/>
      <point x="224" y="538"/>
      <point x="180" y="503"/>
      <point x="147" y="438" type="curve"/>
      <point x="154" y="378" type="line"/>
      <point x="177" y="422"/>
      <point x="212" y="468"/>
      <point x="262" y="468" type="curve" smooth="yes"/>
      <point x="321" y="468"/>
      <point x="350" y="412"/>
      <point x="350" y="264" type="curve" smooth="yes"/>
      <point x="350" y="116"/>
      <point x="314" y="60"/>
      <point x="254" y="60" type="curve" smooth="yes"/>
      <point x="210" y="60"/>
      <point x="176" y="90"/>
      <point x="153" y="135" type="curve"/>
      <point x="153" y="63" type="line"/>
      <point x="182" y="13"/>
      <point x="222" y="-12"/>
      <point x="273" y="-12" type="curve" smooth="yes"/>
      <point x="383" y="-12"/>
      <point x="443" y="94"/>
      <point x="443" y="264" type="curve" smooth="yes"/>
      <point x="443" y="440"/>
      <point x="389" y="538"/>
    </contour>
    <contour>
      <point x="161" y="749" type="line"/>
      <point x="73" y="739" type="line"/>
      <point x="73" y="-212" type="line"/>
      <point x="161" y="-198" type="line"/>
    </contour>
  </outline>
</glyph>
<glyph name="gravecomb" format="2">
  <unicode hex="0300"/>
  <anchor x="124" y="527" name="_top"/>
  <anchor x="134" y="795" name="top"/>
  <outline>
    <contour>
      <point x="69" y="795" type="line"/>
      <point x="30" y="725" type="line"/>
      <point x="208" y="639" type="line"/>
      <point x="234" y="683" type="line"/>
    </contour>
  </outline>
</glyph>
<glyph name="acutecomb" format="2">
  <unicode hex="0301"/>
  <anchor x="134" y="527" name="_top"/>
  <anchor x="135" y="795" name="top"/>
  <outline>
    <contour>
      <point x="195" y="795" type="line"/>
      <point x="30" y="683" type="line"/>
      <point x="56" y="639" type="line"/>
      <point x="234" y="725" type="line"/>
    </contour>
  </outline>
</glyph>
<glyph name="circumflexcomb" format="2">
  <unicode hex="0302"/>
  <anchor x="170" y="527" name="_top"/>
  <anchor x="172" y="791" name="top"/>
  <outline>
    <contour>
      <point x="65" y="637" type="line"/>
      <point x="170" y="721" type="line"/>
      <point x="274" y="637" type="line"/>
      <point x="310" y="675" type="line"/>
      <point x="198" y="791" type="line"/>
      <point x="142" y="791" type="line"/>
      <point x="30" y="675" type="line"/>
    </contour>
  </outline>
</glyph>
<glyph name="macroncomb" format="2">
  <unicode hex="0304"/>
  <anchor x="144" y="527" name="_top"/>
  <anchor x="146" y="733" name="top"/>
  <outline>
    <contour>
      <point x="258" y="669" type="line"/>
      <point x="258" y="733" type="line"/>
      <point x="30" y="733" type="line"/>
      <point x="30" y="669" type="line"/>
    </contour>
  </outline>
</glyph>
<glyph name="ringcomb" format="2">
  <unicode hex="030A"/>
  <anchor x="128" y="527" name="_top"/>
  <anchor x="130" y="834" name="top"/>
  <outline>
    <contour>
      <point x="128" y="834" type="curve" smooth="yes"/>
      <point x="69" y="834"/>
      <point x="30" y="795"/>
      <point x="30" y="730" type="curve" smooth="yes"/>
      <point x="30" y="664"/>
      <point x="69" y="625"/>
      <point x="128" y="625" type="curve" smooth="yes"/>
      <point x="187" y="625"/>
      <point x="226" y="664"/>
      <point x="226" y="730" type="curve" smooth="yes"/>
      <point x="226" y="795"/>
      <point x="187" y="834"/>
    </contour>
    <contour>
      <point x="128" y="788" type="curve" smooth="yes"/>
      <point x="154" y="788"/>
      <point x="171" y="774"/>
      <point x="171" y="730" type="curve" smooth="yes"/>
      <point x="171" y="685"/>
      <point x="153" y="671"/>
      <point x="128" y="671" type="curve" smooth="yes"/>
      <point x="102" y="671"/>
      <point x="85" y="685"/>
      <point x="85" y="730" type="curve" smooth="yes"/>
      <point x="85" y="774"/>
      <point x="102" y="788"/>
    </contour>
  </outline>
</glyph>
<glyph name="cedillacomb" format="2">
  <unicode hex="0327"/>
  <anchor x="112" y="0" name="_bottom"/>
  <anchor x="124" y="-239" name="bottom"/>
  <outline>
    <contour>
      <point x="136" y="16" type="line"/>
      <point x="83" y="16" type="line"/>
      <point x="71" y="-99" type="line"/>
      <point x="124" y="-99"/>
      <point x="145" y="-114"/>
      <point x="145" y="-144" type="curve" smooth="yes"/>
      <point x="145" y="-170"/>
      <point x="127" y="-182"/>
      <point x="104" y="-182" type="curve" smooth="yes"/>
      <point x="83" y="-182"/>
      <point x="70" y="-177"/>
      <point x="55" y="-170" type="curve"/>
      <point x="30" y="-216" type="line"/>
      <point x="50" y="-230"/>
      <point x="76" y="-239"/>
      <point x="109" y="-239" type="curve" smooth="yes"/>
      <point x="169" y="-239"/>
      <point x="214" y="-206"/>
      <point x="214" y="-144" type="curve" smooth="yes"/>
      <point x="214" y="-98"/>
      <point x="190" y="-68"/>
      <point x="136" y="-60" type="curve"/>
    </contour>
  </outline>
</glyph>
<glyph name="Delta" format="2">
  <advance width="495"/>
  <unicode hex="0394"/>
  <anchor x="247" y="0" name="bottom"/>
  <anchor x="247" y="689" name="top"/>
  <outline>
    <contour>
      <point x="246" y="612" type="line"/>
      <point x="375" y="75" type="line"/>
      <point x="116" y="75" type="line"/>
    </contour>
    <contour>
      <point x="304" y="689" type="line"/>
      <point x="191" y="689" type="line"/>
      <point x="8" y="0" type="line"/>
      <point x="487" y="0" type="line"/>
    </contour>
  </outline>
</glyph>
<glyph name="endash" format="2">
  <advance width="437"/>
  <unicode hex="2013"/>
  <outline>
    <contour>
      <point x="30" y="276" type="line"/>
      <point x="407" y="276" type="line"/>
      <point x="407" y="350" type="line"/>
      <point x="30" y="350" type="line"/>
    </contour>
  </outline>
</glyph>
<glyph name="emdash" format="2">
  <advance width="660"/>
  <unicode hex="2014"/>
  <outline>
    <contour>
      <point x="30" y="276" type="line"/>
      <point x="630" y="276" type="line"/>
      <point x="630" y="350" type="line"/>
      <point x="30" y="350" type="line"/>
    </contour>
  </outline>
</glyph>
<glyph name="quotesinglbase" format="2">
  <advance width="200"/>
  <unicode hex="201A"/>
  <outline>
    <contour>
      <point x="103" y="103" type="curve" smooth="yes"/>
      <point x="67" y="103"/>
      <point x="46" y="76"/>
      <point x="46" y="42" type="curve" smooth="yes"/>
      <point x="46" y="22"/>
      <point x="55" y="6"/>
      <point x="71" y="-6" type="curve"/>
      <point x="37" y="-154" type="line"/>
      <point x="88" y="-154" type="line"/>
      <point x="142" y="-16" type="line" smooth="yes"/>
      <point x="153" y="12"/>
      <point x="158" y="27"/>
      <point x="158" y="45" type="curve" smooth="yes"/>
      <point x="158" y="76"/>
      <point x="138" y="103"/>
    </contour>
  </outline>
</glyph>
<glyph name="daggerdbl" format="2">
  <advance width="422"/>
  <unicode hex="2021"/>
  <outline>
    <contour>
      <point x="391" y="235" type="line"/>
      <point x="31" y="235" type="line"/>
      <point x="31" y="161" type="line"/>
      <point x="391" y="161" type="line"/>
    </contour>
    <component base="dagger"/>
  </outline>
</glyph>
<glyph name="bullet" format="2">
  <advance width="302"/>
  <unicode hex="2022"/>
  <outline>
    <contour>
      <point x="151" y="450" type="curve" smooth="yes"/>
      <point x="89" y="450"/>
      <point x="45" y="404"/>
      <point x="45" y="342" type="curve" smooth="yes"/>
      <point x="45" y="281"/>
      <point x="89" y="234"/>
      <point x="151" y="234" type="curve" smooth="yes"/>
      <point x="213" y="234"/>
      <point x="257" y="280"/>
      <point x="257" y="342" type="curve" smooth="yes"/>
      <point x="257" y="403"/>
      <point x="213" y="450"/>
    </contour>
  </outline>
</glyph>
<glyph name="guilsinglleft" format="2">
  <advance width="299"/>
  <unicode hex="2039"/>
  <outline>
    <contour>
      <point x="196" y="533" type="line"/>
      <point x="50" y="317" type="line"/>
      <point x="50" y="256" type="line"/>
      <point x="196" y="41" type="line"/>
      <point x="249" y="75" type="line"/>
      <point x="133" y="287" type="line"/>
      <point x="249" y="499" type="line"/>
    </contour>
  </outline>
</glyph>
<glyph name="guilsinglright" format="2">
  <advance width="299"/>
  <unicode hex="203A"/>
  <outline>
    <contour>
      <point x="103" y="533" type="line"/>
      <point x="50" y="499" type="line"/>
      <point x="166" y="287" type="line"/>
      <point x="50" y="75" type="line"/>
      <point x="103" y="41" type="line"/>
      <point x="249" y="256" type="line"/>
      <point x="249" y="317" type="line"/>
    </contour>
  </outline>
</glyph>
<glyph name="fraction" format="2">
  <advance width="115"/>
  <unicode hex="2044"/>
  <outline>
    <contour>
      <point x="196" y="750" type="line"/>
      <point x="-137" y="-53" type="line"/>
      <point x="-80" y="-77" type="line"/>
      <point x="252" y="726" type="line"/>
    </contour>
  </outline>
</glyph>
<glyph name="numero" format="2">
  <advance width="922"/>
  <unicode hex="2116"/>
  <anchor x="280" y="0" name="bottom"/>
  <anchor x="286" y="689" name="top"/>
  <outline>
    <contour>
      <point x="715" y="689" type="curve" smooth="yes"/>
      <point x="613" y="689"/>
      <point x="552" y="613"/>
      <point x="552" y="480" type="curve" smooth="yes"/>
      <point x="552" y="343"/>
      <point x="613" y="271"/>
      <point x="715" y="271" type="curve" smooth="yes"/>
      <point x="817" y="271"/>
      <point x="877" y="348"/>
      <point x="877" y="480" type="curve" smooth="yes"/>
      <point x="877" y="617"/>
      <point x="817" y="689"/>
    </contour>
    <contour>
      <point x="715" y="623" type="curve" smooth="yes"/>
      <point x="767" y="623"/>
      <point x="792" y="589"/>
      <point x="792" y="480" type="curve" smooth="yes"/>
      <point x="792" y="372"/>
      <point x="766" y="337"/>
      <point x="715" y="337" type="curve" smooth="yes"/>
      <point x="663" y="337"/>
      <point x="637" y="372"/>
      <point x="637" y="480" type="curve" smooth="yes"/>
      <point x="637" y="588"/>
      <point x="663" y="623"/>
    </contour>
    <component base="N"/>
    <component base="minus" xOffset="508" yOffset="-297"/>
  </outline>
</glyph>
<glyph name="product" format="2">
  <advance width="493"/>
  <unicode hex="220F"/>
  <outline>
    <contour>
      <point x="451" y="597" type="line"/>
      <point x="451" y="669" type="line"/>
      <point x="42" y="669" type="line"/>
      <point x="42" y="597" type="line"/>
      <point x="100" y="597" type="line"/>
      <point x="100" y="-212" type="line"/>
      <point x="184" y="-202" type="line"/>
      <point x="184" y="597" type="line"/>
      <point x="312" y="597" type="line"/>
      <point x="312" y="-212" type="line"/>
      <point x="395" y="-202" type="line"/>
      <point x="395" y="597" type="line"/>
    </contour>
  </outline>
</glyph>
<glyph name="summation" format="2">
  <advance width="415"/>
  <unicode hex="2211"/>
  <outline>
    <contour>
      <point x="378" y="669" type="line"/>
      <point x="37" y="669" type="line"/>
      <point x="37" y="595" type="line"/>
      <point x="203" y="334" type="line"/>
      <point x="37" y="74" type="line"/>
      <point x="37" y="0" type="line"/>
      <point x="378" y="0" type="line"/>
      <point x="378" y="75" type="line"/>
      <point x="133" y="75" type="line"/>
      <point x="285" y="316" type="line"/>
      <point x="285" y="356" type="line"/>
      <point x="133" y="594" type="line"/>
      <point x="378" y="594" type="line"/>
    </contour>
  </outline>
</glyph>
<glyph name="minus" format="2">
  <advance width="413"/>
  <unicode hex="2212"/>
  <outline>
    <contour>
      <point x="48" y="297" type="line"/>
      <point x="365" y="297" type="line"/>
      <point x="365" y="368" type="line"/>
      <point x="48" y="368" type="line"/>
    </contour>
  </outline>
</glyph>
<glyph name="radical" format="2">
  <advance width="460"/>
  <unicode hex="221A"/>
  <outline>
    <contour>
      <point x="595" y="850" type="line"/>
      <point x="380" y="850" type="line"/>
      <point x="214" y="91" type="line"/>
      <point x="108" y="478" type="line"/>
      <point x="29" y="457" type="line"/>
      <point x="167" y="0" type="line"/>
      <point x="269" y="0" type="line"/>
      <point x="444" y="776" type="line"/>
      <point x="595" y="776" type="line"/>
    </contour>
  </outline>
</glyph>
<glyph name="notequal" format="2">
  <advance width="413"/>
  <unicode hex="2260"/>
  <outline>
    <contour>
      <point x="309" y="593" type="line"/>
      <point x="59" y="88" type="line"/>
      <point x="106" y="64" type="line"/>
      <point x="356" y="569" type="line"/>
    </contour>
    <component base="equal"/>
  </outline>
</glyph>
<glyph name="lozenge" format="2">
  <advance width="445"/>
  <unicode hex="25CA"/>
  <outline>
    <contour>
      <point x="272" y="669" type="line"/>
      <point x="172" y="669" type="line"/>
      <point x="25" y="336" type="line"/>
      <point x="172" y="0" type="line"/>
      <point x="272" y="0" type="line"/>
      <point x="420" y="337" type="line"/>
    </contour>
    <contour>
      <point x="222" y="604" type="line"/>
      <point x="334" y="336" type="line"/>
      <point x="222" y="65" type="line"/>
      <point x="111" y="337" type="line"/>
    </contour>
  </outline>
</glyph>
<glyph name="acute.case.loclPLK" format="2">
  <advance width="211"/>
  <anchor x="77" y="689" name="_top"/>
  <outline>
    <contour>
      <point x="114" y="924" type="line"/>
      <point x="30" y="761" type="line"/>
      <point x="72" y="734" type="line"/>
      <point x="181" y="879" type="line"/>
    </contour>
  </outline>
</glyph>
<glyph name="acute.loclPLK" format="2">
  <advance width="211"/>
  <anchor x="77" y="527" name="_top"/>
  <outline>
    <contour>
      <point x="113" y="775" type="line"/>
      <point x="30" y="604" type="line"/>
      <point x="72" y="577" type="line"/>
      <point x="181" y="730" type="line"/>
    </contour>
  </outline>
</glyph>
<glyph name="acute.sc.loclPLK" format="2">
  <advance width="211"/>
  <anchor x="76" y="564" name="_top"/>
  <outline>
    <contour>
      <point x="113" y="817" type="line"/>
      <point x="30" y="646" type="line"/>
      <point x="72" y="619" type="line"/>
      <point x="181" y="772" type="line"/>
    </contour>
  </outline>
</glyph>
<glyph name="acutecomb.case" format="2">
  <anchor x="132" y="689" name="_top"/>
  <anchor x="134" y="908" name="top"/>
  <outline>
    <contour>
      <point x="197" y="908" type="line"/>
      <point x="30" y="803" type="line"/>
      <point x="53" y="755" type="line"/>
      <point x="234" y="834" type="line"/>
    </contour>
  </outline>
</glyph>
<glyph name="circumflexcomb.case" format="2">
  <anchor x="171" y="689" name="_top"/>
  <anchor x="170" y="912" name="top"/>
  <anchor x="82" y="782" name="topleft"/>
  <anchor x="259" y="782" name="topright"/>
  <outline>
    <contour>
      <point x="65" y="761" type="line"/>
      <point x="170" y="841" type="line"/>
      <point x="274" y="761" type="line"/>
      <point x="310" y="799" type="line"/>
      <point x="198" y="911" type="line"/>
      <point x="142" y="911" type="line"/>
      <point x="30" y="799" type="line"/>
    </contour>
  </outline>
</glyph>
<glyph name="dagger.tf" format="2">
  <advance width="460"/>
  <outline>
    <contour>
      <point x="272" y="689" type="line"/>
      <point x="189" y="689" type="line"/>
      <point x="189" y="541" type="line"/>
      <point x="43" y="541" type="line"/>
      <point x="43" y="467" type="line"/>
      <point x="189" y="467" type="line"/>
      <point x="189" y="0" type="line"/>
      <point x="272" y="0" type="line"/>
      <point x="272" y="467" type="line"/>
      <point x="418" y="467" type="line"/>
      <point x="418" y="541" type="line"/>
      <point x="272" y="541" type="line"/>
    </contour>
  </outline>
</glyph>
<glyph name="e.sc" format="2">
  <advance width="398"/>
  <anchor x="218" y="0" name="bottom"/>
  <anchor x="343" y="0" name="ogonek"/>
  <anchor x="218" y="564" name="top"/>
  <outline>
    <contour>
      <point x="357" y="564" type="line"/>
      <point x="76" y="564" type="line"/>
      <point x="76" y="0" type="line"/>
      <point x="359" y="0" type="line"/>
      <point x="359" y="68" type="line"/>
      <point x="164" y="68" type="line"/>
      <point x="164" y="254" type="line"/>
      <point x="324" y="254" type="line"/>
      <point x="324" y="322" type="line"/>
      <point x="164" y="322" type="line"/>
      <point x="164" y="496" type="line"/>
      <point x="347" y="496" type="line"/>
    </contour>
  </outline>
</glyph>
<glyph name="eth.sc" format="2">
  <advance width="490"/>
  <anchor x="242" y="0" name="bottom"/>
  <anchor x="249" y="283" name="center"/>
  <anchor x="231" y="564" name="top"/>
  <outline>
    <contour>
      <point x="32" y="257" type="line"/>
      <point x="254" y="257" type="line"/>
      <point x="254" y="324" type="line"/>
      <point x="79" y="324" type="line"/>
      <point x="32" y="324" type="line"/>
    </contour>
    <component base="d.sc" xOffset="3"/>
  </outline>
</glyph>
<glyph name="f.sc" format="2">
  <advance width="367"/>
  <anchor x="120" y="0" name="bottom"/>
  <anchor x="213" y="564" name="top"/>
  <outline>
    <contour>
      <point x="350" y="564" type="line"/>
      <point x="76" y="564" type="line"/>
      <point x="76" y="0" type="line"/>
      <point x="164" y="0" type="line"/>
      <point x="164" y="245" type="line"/>
      <point x="317" y="245" type="line"/>
      <point x="317" y="312" type="line"/>
      <point x="164" y="312" type="line"/>
      <point x="164" y="496" type="line"/>
      <point x="340" y="496" type="line"/>
    </contour>
  </outline>
</glyph>
<glyph name="five.tf" format="2">
  <advance width="460"/>
  <outline>
    <contour>
      <point x="387" y="689" type="line"/>
      <point x="73" y="689" type="line"/>
      <point x="73" y="344" type="line"/>
      <point x="138" y="344" type="line"/>
      <point x="164" y="360"/>
      <point x="187" y="368"/>
      <point x="218" y="368" type="curve" smooth="yes"/>
      <point x="275" y="368"/>
      <point x="317" y="336"/>
      <point x="317" y="221" type="curve" smooth="yes"/>
      <point x="317" y="112"/>
      <point x="274" y="60"/>
      <point x="205" y="60" type="curve"/>
      <point x="156" y="60"/>
      <point x="122" y="81"/>
      <point x="88" y="120" type="curve"/>
      <point x="36" y="73" type="line"/>
      <point x="82" y="20"/>
      <point x="131" y="-12"/>
      <point x="207" y="-12" type="curve"/>
      <point x="327" y="-12"/>
      <point x="408" y="81"/>
      <point x="408" y="219" type="curve" smooth="yes"/>
      <point x="408" y="358"/>
      <point x="341" y="435"/>
      <point x="246" y="435" type="curve" smooth="yes"/>
      <point x="211" y="435"/>
      <point x="185" y="427"/>
      <point x="157" y="409" type="curve"/>
      <point x="157" y="619" type="line"/>
      <point x="375" y="619" type="line"/>
    </contour>
  </outline>
</glyph>
<glyph name="four.osf" format="2">
  <advance width="415"/>
  <outline>
    <contour>
      <point x="178" y="574" type="line"/>
      <point x="15" y="102" type="line"/>
      <point x="15" y="41" type="line"/>
      <point x="415" y="41" type="line"/>
      <point x="415" y="109" type="line"/>
      <point x="103" y="109" type="line"/>
      <point x="254" y="548" type="line"/>
    </contour>
    <contour>
      <point x="347" y="293" type="line"/>
      <point x="275" y="293" type="line"/>
      <point x="266" y="94" type="line"/>
      <point x="266" y="-107" type="line"/>
      <point x="347" y="-107" type="line"/>
    </contour>
  </outline>
</glyph>
<glyph name="four.tosf" format="2">
  <advance width="460"/>
  <outline>
    <contour>
      <point x="200" y="574" type="line"/>
      <point x="37" y="102" type="line"/>
      <point x="37" y="41" type="line"/>
      <point x="441" y="41" type="line"/>
      <point x="441" y="109" type="line"/>
      <point x="125" y="109" type="line"/>
      <point x="275" y="547" type="line"/>
    </contour>
    <contour>
      <point x="368" y="293" type="line"/>
      <point x="295" y="293" type="line"/>
      <point x="286" y="94" type="line"/>
      <point x="286" y="-107" type="line"/>
      <point x="368" y="-107" type="line"/>
    </contour>
  </outline>
</glyph>
<glyph name="gravecomb.case" format="2">
  <anchor x="138" y="689" name="_top"/>
  <anchor x="138" y="908" name="top"/>
  <outline>
    <contour>
      <point x="66" y="908" type="line"/>
      <point x="30" y="834" type="line"/>
      <point x="211" y="755" type="line"/>
      <point x="234" y="803" type="line"/>
    </contour>
  </outline>
</glyph>
<glyph name="i.sc" format="2">
  <advance width="240"/>
  <anchor x="120" y="0" name="bottom"/>
  <anchor x="158" y="0" name="ogonek"/>
  <anchor x="120" y="564" name="top"/>
  <outline>
    <contour>
      <point x="164" y="564" type="line"/>
      <point x="76" y="564" type="line"/>
      <point x="76" y="0" type="line"/>
      <point x="164" y="0" type="line"/>
    </contour>
  </outline>
</glyph>
<glyph name="k.sc" format="2">
  <advance width="449"/>
  <anchor x="243" y="0" name="bottom"/>
  <anchor x="247" y="564" name="top"/>
  <outline>
    <contour>
      <point x="436" y="564" type="line"/>
      <point x="346" y="564" type="line"/>
      <point x="167" y="302" type="line"/>
      <point x="351" y="0" type="line"/>
      <point x="449" y="0" type="line"/>
      <point x="259" y="308" type="line"/>
    </contour>
    <contour>
      <point x="164" y="564" type="line"/>
      <point x="76" y="564" type="line"/>
      <point x="76" y="0" type="line"/>
      <point x="164" y="0" type="line"/>
    </contour>
  </outline>
</glyph>
<glyph name="lozenge.tf" format="2">
  <advance width="460"/>
  <outline>
    <contour>
      <point x="279" y="689" type="line"/>
      <point x="180" y="689" type="line"/>
      <point x="29" y="346" type="line"/>
      <point x="180" y="0" type="line"/>
      <point x="279" y="0" type="line"/>
      <point x="430" y="347" type="line"/>
    </contour>
    <contour>
      <point x="229" y="624" type="line"/>
      <point x="344" y="346" type="line"/>
      <point x="229" y="65" type="line"/>
      <point x="115" y="347" type="line"/>
    </contour>
  </outline>
</glyph>
<glyph name="lozenge.tosf" format="2">
  <advance width="460"/>
  <outline>
    <contour>
      <point x="280" y="669" type="line"/>
      <point x="180" y="669" type="line"/>
      <point x="33" y="336" type="line"/>
      <point x="180" y="0" type="line"/>
      <point x="280" y="0" type="line"/>
      <point x="428" y="337" type="line"/>
    </contour>
    <contour>
      <point x="230" y="604" type="line"/>
      <point x="342" y="336" type="line"/>
      <point x="230" y="65" type="line"/>
      <point x="119" y="337" type="line"/>
    </contour>
  </outline>
</glyph>
<glyph name="n.sc" format="2">
  <advance width="509"/>
  <anchor x="255" y="0" name="bottom"/>
  <anchor x="260" y="564" name="top"/>
  <outline>
    <contour>
      <point x="433" y="564" type="line"/>
      <point x="353" y="564" type="line"/>
      <point x="353" y="272" type="line" smooth="yes"/>
      <point x="353" y="198"/>
      <point x="360" y="123"/>
      <point x="366" y="87" type="curve"/>
      <point x="188" y="564" type="line"/>
      <point x="76" y="564" type="line"/>
      <point x="76" y="0" type="line"/>
      <point x="156" y="0" type="line"/>
      <point x="156" y="252" type="line" smooth="yes"/>
      <point x="156" y="357"/>
      <point x="149" y="423"/>
      <point x="143" y="477" type="curve"/>
      <point x="321" y="0" type="line"/>
      <point x="433" y="0" type="line"/>
    </contour>
  </outline>
</glyph>
<glyph name="o.sc" format="2">
  <advance width="515"/>
  <anchor x="258" y="0" name="bottom"/>
  <anchor x="334" y="0" name="ogonek"/>
  <anchor x="258" y="564" name="top"/>
  <anchor x="90" y="564" name="topleft"/>
  <anchor x="420" y="564" name="topright"/>
  <outline>
    <contour>
      <point x="258" y="574" type="curve" smooth="yes"/>
      <point x="129" y="574"/>
      <point x="45" y="480"/>
      <point x="45" y="282" type="curve" smooth="yes"/>
      <point x="45" y="78"/>
      <point x="129" y="-11"/>
      <point x="258" y="-11" type="curve" smooth="yes"/>
      <point x="387" y="-11"/>
      <point x="470" y="81"/>
      <point x="470" y="283" type="curve" smooth="yes"/>
      <point x="470" y="485"/>
      <point x="387" y="574"/>
    </contour>
    <contour>
      <point x="258" y="505" type="curve" smooth="yes"/>
      <point x="334" y="505"/>
      <point x="378" y="454"/>
      <point x="378" y="283" type="curve" smooth="yes"/>
      <point x="378" y="107"/>
      <point x="334" y="58"/>
      <point x="258" y="58" type="curve" smooth="yes"/>
      <point x="184" y="58"/>
      <point x="137" y="107"/>
      <point x="137" y="282" type="curve" smooth="yes"/>
      <point x="137" y="454"/>
      <point x="183" y="505"/>
    </contour>
  </outline>
</glyph>
<glyph name="one.dnom" format="2">
  <advance width="328"/>
  <outline>
    <contour>
      <point x="229" y="417" type="line"/>
      <point x="166" y="417" type="line"/>
      <point x="49" y="334" type="line"/>
      <point x="83" y="288" type="line"/>
      <point x="160" y="343" type="line"/>
      <point x="160" y="0" type="line"/>
      <point x="229" y="0" type="line"/>
    </contour>
  </outline>
</glyph>
<glyph name="one.tf" format="2">
  <advance width="460"/>
  <outline>
    <contour>
      <point x="308" y="689" type="line"/>
      <point x="230" y="689" type="line"/>
      <point x="56" y="561" type="line"/>
      <point x="96" y="504" type="line"/>
      <point x="221" y="596" type="line"/>
      <point x="221" y="20" type="line"/>
      <point x="308" y="20" type="line"/>
    </contour>
    <contour>
      <point x="422" y="71" type="line"/>
      <point x="84" y="71" type="line"/>
      <point x="84" y="0" type="line"/>
      <point x="422" y="0" type="line"/>
    </contour>
  </outline>
</glyph>
<glyph name="parenleft.dnom" format="2">
  <advance width="324"/>
  <outline>
    <contour>
      <point x="188" y="514" type="line"/>
      <point x="137" y="425"/>
      <point x="92" y="343"/>
      <point x="92" y="194" type="curve" smooth="yes"/>
      <point x="92" y="45"/>
      <point x="137" y="-37"/>
      <point x="188" y="-126" type="curve"/>
      <point x="232" y="-99" type="line"/>
      <point x="188" y="-12"/>
      <point x="161" y="61"/>
      <point x="161" y="194" type="curve" smooth="yes"/>
      <point x="161" y="327"/>
      <point x="188" y="400"/>
      <point x="232" y="487" type="curve"/>
    </contour>
  </outline>
</glyph>
<glyph name="parenright.dnom" format="2">
  <advance width="324"/>
  <outline>
    <contour>
      <point x="136" y="514" type="curve"/>
      <point x="92" y="487" type="line"/>
      <point x="135" y="400"/>
      <point x="163" y="327"/>
      <point x="163" y="194" type="curve"/>
      <point x="163" y="61"/>
      <point x="135" y="-12"/>
      <point x="92" y="-99" type="curve"/>
      <point x="136" y="-126" type="line"/>
      <point x="187" y="-37"/>
      <point x="232" y="45"/>
      <point x="232" y="194" type="curve"/>
      <point x="232" y="343"/>
      <point x="187" y="425"/>
    </contour>
  </outline>
</glyph>
<glyph name="pe-cy.sc" format="2">
  <advance width="503"/>
  <anchor x="251" y="0" name="bottom"/>
  <anchor x="438" y="0" name="bottomright"/>
  <anchor x="251" y="564" name="top"/>
  <outline>
    <contour>
      <point x="429" y="564" type="line"/>
      <point x="74" y="564" type="line"/>
      <point x="74" y="0" type="line"/>
      <point x="162" y="0" type="line"/>
      <point x="162" y="491" type="line"/>
      <point x="341" y="491" type="line"/>
      <point x="341" y="0" type="line"/>
      <point x="429" y="0" type="line"/>
    </contour>
  </outline>
</glyph>
<glyph name="plus.dnom" format="2">
  <advance width="328"/>
  <outline>
    <contour>
      <point x="196" y="322" type="line"/>
      <point x="131" y="322" type="line"/>
      <point x="131" y="235" type="line"/>
      <point x="57" y="235" type="line"/>
      <point x="57" y="172" type="line"/>
      <point x="131" y="172" type="line"/>
      <point x="131" y="87" type="line"/>
      <point x="196" y="87" type="line"/>
      <point x="196" y="172" type="line"/>
      <point x="271" y="172" type="line"/>
      <point x="271" y="235" type="line"/>
      <point x="196" y="235" type="line"/>
    </contour>
  </outline>
</glyph>
<glyph name="r.sc" format="2">
  <advance width="458"/>
  <anchor x="241" y="0" name="bottom"/>
  <anchor x="232" y="564" name="top"/>
  <outline>
    <contour>
      <point x="209" y="564" type="curve" smooth="yes"/>
      <point x="76" y="564" type="line"/>
      <point x="76" y="0" type="line"/>
      <point x="164" y="0" type="line"/>
      <point x="164" y="497" type="line"/>
      <point x="209" y="497" type="line" smooth="yes"/>
      <point x="288" y="497"/>
      <point x="322" y="468"/>
      <point x="322" y="402" type="curve" smooth="yes"/>
      <point x="322" y="328"/>
      <point x="286" y="301"/>
      <point x="224" y="301" type="curve" smooth="yes"/>
      <point x="153" y="301" type="line"/>
      <point x="153" y="236" type="line"/>
      <point x="248" y="236" type="line"/>
      <point x="359" y="257"/>
      <point x="411" y="303"/>
      <point x="411" y="402" type="curve" smooth="yes"/>
      <point x="411" y="505"/>
      <point x="346" y="564"/>
    </contour>
    <contour>
      <point x="306" y="259" type="line"/>
      <point x="225" y="246" type="line"/>
      <point x="343" y="0" type="line"/>
      <point x="440" y="0" type="line"/>
    </contour>
  </outline>
</glyph>
<glyph name="seven.dnom" format="2">
  <advance width="328"/>
  <outline>
    <contour>
      <point x="276" y="417" type="line"/>
      <point x="52" y="417" type="line"/>
      <point x="52" y="360" type="line"/>
      <point x="208" y="360" type="line"/>
      <point x="81" y="13" type="line"/>
      <point x="143" y="-8" type="line"/>
      <point x="276" y="364" type="line"/>
    </contour>
  </outline>
</glyph>
<glyph name="seven.osf" format="2">
  <advance width="374"/>
  <outline>
    <contour>
      <point x="347" y="564" type="line"/>
      <point x="11" y="564" type="line"/>
      <point x="11" y="492" type="line"/>
      <point x="260" y="492" type="line"/>
      <point x="66" y="-94" type="line"/>
      <point x="144" y="-119" type="line"/>
      <point x="347" y="498" type="line"/>
    </contour>
  </outline>
</glyph>
<glyph name="seven.tf" format="2">
  <advance width="460"/>
  <outline>
    <contour>
      <point x="403" y="689" type="line"/>
      <point x="57" y="689" type="line"/>
      <point x="57" y="617" type="line"/>
      <point x="318" y="617" type="line"/>
      <point x="104" y="13" type="line"/>
      <point x="182" y="-12" type="line"/>
      <point x="403" y="622" type="line"/>
    </contour>
  </outline>
</glyph>
<glyph name="seven.tosf" format="2">
  <advance width="460"/>
  <outline>
    <contour>
      <point x="389" y="564" type="line"/>
      <point x="40" y="564" type="line"/>
      <point x="40" y="492" type="line"/>
      <point x="302" y="492" type="line"/>
      <point x="105" y="-94" type="line"/>
      <point x="183" y="-119" type="line"/>
      <point x="389" y="498" type="line"/>
    </contour>
  </outline>
</glyph>
<glyph name="summation.tf" format="2">
  <advance width="460"/>
  <outline>
    <contour>
      <point x="406" y="689" type="line"/>
      <point x="52" y="689" type="line"/>
      <point x="52" y="615" type="line"/>
      <point x="231" y="344" type="line"/>
      <point x="52" y="74" type="line"/>
      <point x="52" y="0" type="line"/>
      <point x="406" y="0" type="line"/>
      <point x="406" y="75" type="line"/>
      <point x="148" y="75" type="line"/>
      <point x="310" y="326" type="line"/>
      <point x="310" y="366" type="line"/>
      <point x="148" y="614" type="line"/>
      <point x="406" y="614" type="line"/>
    </contour>
  </outline>
</glyph>
<glyph name="t.sc" format="2">
  <advance width="377"/>
  <anchor x="189" y="0" name="bottom"/>
  <anchor x="241" y="0" name="bottomright"/>
  <anchor x="189" y="283" name="center"/>
  <anchor x="189" y="564" name="top"/>
  <outline>
    <contour>
      <point x="371" y="564" type="line"/>
      <point x="11" y="564" type="line"/>
      <point x="11" y="491" type="line"/>
      <point x="145" y="491" type="line"/>
      <point x="145" y="0" type="line"/>
      <point x="233" y="0" type="line"/>
      <point x="233" y="491" type="line"/>
      <point x="362" y="491" type="line"/>
    </contour>
  </outline>
</glyph>
<glyph name="two.osf" format="2">
  <advance width="410"/>
  <outline>
    <contour>
      <point x="189" y="574" type="curve" smooth="yes"/>
      <point x="111" y="574"/>
      <point x="58" y="537"/>
      <point x="11" y="468" type="curve"/>
      <point x="66" y="427" type="line"/>
      <point x="103" y="480"/>
      <point x="136" y="503"/>
      <point x="181" y="503" type="curve" smooth="yes"/>
      <point x="236" y="503"/>
      <point x="271" y="465"/>
      <point x="271" y="400" type="curve" smooth="yes"/>
      <point x="271" y="317"/>
      <point x="241" y="265"/>
      <point x="24" y="70" type="curve"/>
      <point x="24" y="0" type="line"/>
      <point x="359" y="0" type="line"/>
      <point x="369" y="74" type="line"/>
      <point x="128" y="74" type="line"/>
      <point x="323" y="242"/>
      <point x="360" y="312"/>
      <point x="360" y="403" type="curve" smooth="yes"/>
      <point x="360" y="496"/>
      <point x="293" y="574"/>
    </contour>
  </outline>
</glyph>
<glyph name="z.sc" format="2">
  <advance width="383"/>
  <anchor x="184" y="0" name="bottom"/>
  <anchor x="200" y="564" name="top"/>
  <outline>
    <contour>
      <point x="354" y="564" type="line"/>
      <point x="46" y="564" type="line"/>
      <point x="46" y="492" type="line"/>
      <point x="264" y="492" type="line"/>
      <point x="22" y="69" type="line"/>
      <point x="22" y="0" type="line"/>
      <point x="346" y="0" type="line"/>
      <point x="355" y="74" type="line"/>
      <point x="112" y="74" type="line"/>
      <point x="354" y="494" type="line"/>
    </contour>
  </outline>
</glyph>
<glyph name="zero.tosf.zero" format="2">
  <advance width="460"/>
  <outline>
    <contour>
      <point x="230" y="574" type="curve" smooth="yes"/>
      <point x="102" y="574"/>
      <point x="23" y="479"/>
      <point x="23" y="282" type="curve" smooth="yes"/>
      <point x="23" y="84"/>
      <point x="103" y="-12"/>
      <point x="230" y="-12" type="curve" smooth="yes"/>
      <point x="357" y="-12"/>
      <point x="437" y="84"/>
      <point x="437" y="282" type="curve" smooth="yes"/>
      <point x="437" y="480"/>
      <point x="358" y="574"/>
    </contour>
    <contour>
      <point x="230" y="503" type="curve" smooth="yes"/>
      <point x="305" y="503"/>
      <point x="352" y="458"/>
      <point x="352" y="282" type="curve" smooth="yes"/>
      <point x="352" y="105"/>
      <point x="298" y="58"/>
      <point x="230" y="58" type="curve" smooth="yes"/>
      <point x="155" y="58"/>
      <point x="108" y="105"/>
      <point x="108" y="282" type="curve" smooth="yes"/>
      <point x="108" y="458"/>
      <point x="162" y="503"/>
    </contour>
    <contour>
      <point x="293" y="518" type="line"/>
      <point x="124" y="101" type="line"/>
      <point x="162" y="60" type="line"/>
      <point x="330" y="478" type="line"/>
    </contour>
  </outline>
</glyph>
